<svg xmlns="http://www.w3.org/2000/svg" viewBox="897.186201908006 174.4103534663909 17.195526104517395 23.17054366798956"><title>Rhode Island geographic outline</title><path fill="#586f65" d="M910.51,182.799L911.637,182.882L912.784,186.396L911.84,187.584L910.987,185.731L910.469,183.98L910.114,184.224L910.977,187.21L910.022,187.441L910.043,188.141L909.058,188.266L909.637,185.352L909.545,184.372ZM908.439,188.415L908.134,186.23L908.54,186.129L908.956,187.75ZM906.713,195.983L906.967,194.303L907.769,195.906ZM901.738,193.496L902.104,192.831L901.556,191.377L902.205,191.092L901.007,185.755L898.784,178.021L905.484,176.008L906.215,178.78L906.875,178.484L907.748,181.042L908.987,181.374L909.83,182.14L909.89,183.037L909.281,184.028L908.794,182.603L906.713,181.238L907.292,183.44L906.317,183.624L907.109,183.992L907.637,185.589L906.967,185.981L907.728,186.859L908.073,188.236L907.606,190.747L905.363,191.59L903.962,192.653L901.87,193.793Z"/></svg>